. 
  
http://www.torrenting.com/        :     Greatest Movie Tracker on The Net!!!
 
http://www.Torrenting.com          :     Once & For all ;)


               www . Torrenting . Com 

(((((((((((((= Enjoy No RAR releases =))))))))))))))))))))


...................................NFO:....................................

.[img]http://img815.imageshack.us/img815/5705/7169421a05a870c.jpg[/img]

[color=blue][size=5][b]Neds.2010.BDRip.XVID.AC3.HQ.Hive-CM8[/b][/size][/color]



[b]Thx Hive

CM8 Doing It Right The First Time :D

Source Bluray

Video: 720x304 @bitrate 1800 2pass
Audio: DTS to AC3 5.1 @384
Sample: yes included
Subs: yes english in srt /subs[/b]


[url]http://www.imdb.com/title/tt1560970/[/url]


General
Complete name                    : Neds.2010.BDRip.XVID.AC3.HQ.Hive-CM8.avi
Format                           : AVI
Format/Info                      : Audio Video Interleave
File size                        : 1.92 GiB
Duration                         : 2h 3mn
Overall bit rate                 : 2 225 Kbps
Writing application              : Nandub v1.0rc2
Writing library                  : Nandub build 1853/release

Video
ID                               : 0
Format                           : MPEG-4 Visual
Format profile                   : Advanced Simple@L5
Format settings, BVOP            : 1
Format settings, QPel            : Yes
Format settings, GMC             : No warppoints
Format settings, Matrix          : Default (H.263)
Muxing mode                      : Packed bitstream
Codec ID                         : XVID
Codec ID/Hint                    : XviD
Duration                         : 2h 3mn
Bit rate                         : 1 831 Kbps
Width                            : 720 pixels
Height                           : 304 pixels
Display aspect ratio             : 2.35:1
Frame rate                       : 23.976 fps
Color space                      : YUV
Chroma subsampling               : 4:2:0
Bit depth                        : 8 bits
Scan type                        : Progressive
Compression mode                 : Lossy
Bits/(Pixel*Frame)               : 0.349
Stream size                      : 1.58 GiB (82%)
Writing library                  : XviD 1.2.1 (UTC 2008-12-04)

Audio
ID                               : 1
Format                           : AC-3
Format/Info                      : Audio Coding 3
Mode extension                   : CM (complete main)
Codec ID                         : 2000
Duration                         : 2h 3mn
Bit rate mode                    : Constant
Bit rate                         : 384 Kbps
Channel(s)                       : 6 channels
Channel positions                : Front: L C R, Side: L R, LFE
Sampling rate                    : 48.0 KHz
Bit depth                        : 16 bits
Compression mode                 : Lossy
Stream size                      : 340 MiB (17%)
Alignment                        : Split accross interleaves
Interleave, duration             : 42 ms (1.00 video frame)
Interleave, preload duration     : 500 ms



Conor McCarron	 ... 	John McGill
Mhairi Anderson	 ... 	Elizabeth
Martin Bell	... 	Julian
Joe Cassidy	... 	Janitor
Linda Cuthbert	... 	Mrs Matheson


NEDS a film which portrays a young mans will to succeed in any circumstance and every hurdle 
which is played by society must be dealt with-in an appropriate 70s fashion. Living in Scotland 
not only is there defaults within any of the class systems but a constant bombardment from 
Parents,Police and Schools to do well. John McGill (Conner McCarron) becomes victim to this. 
He has the potential to fulfil any career prospect which is becomes knocked around by his 
unstable nuclear family and his authoritative teachers.



[img]http://img803.imageshack.us/img803/7721/79960170.png[/img]
[img]http://img40.imageshack.us/img40/6977/nnneee.png[/img]
[img]http://img840.imageshack.us/img840/1774/nnneenee.png[/img]
[img]http://img155.imageshack.us/img155/542/nnneneenee.png[/img]
[img]http://img849.imageshack.us/img849/5600/nnneneneenee.png[/img]
[img]http://img560.imageshack.us/img560/2005/nnneneneneenee.png[/img]




ViSiON,LUSi,SANTi,MAGNET,THC,T0XiCiNK,LKRG,IMAGiNE,WBZ,FLAWL3SS,NOVA
Vik,OneTwo,Rapeseed,D2U,SAFC,goldadvance,MEMORY100,KaN1vE,Unevano,Pinnz,Wayne,Mr Hive
and all P2P groups 
Great Work Guys :D

CM8@hushmail.com